<svg xmlns="http://www.w3.org/2000/svg" xmlns:xlink="http://www.w3.org/1999/xlink" width="148.049" height="62.692" viewBox="0 0 148.049 62.692">
  <defs>
    <filter id="Path_402" x="0" y="0" width="148.049" height="62.692" filterUnits="userSpaceOnUse">
      <feOffset dy="3" input="SourceAlpha"/>
      <feGaussianBlur stdDeviation="3" result="blur"/>
      <feFlood flood-opacity="0.161"/>
      <feComposite operator="in" in2="blur"/>
      <feComposite in="SourceGraphic"/>
    </filter>
  </defs>
  <g id="Group_562" data-name="Group 562" transform="translate(-194.95 -921.091)">
    <path id="Path_403" data-name="Path 403" d="M1747.719,44H1706.8l-8.767,3.653-5.845,6.576L1690,63l2.192,8.767,5.845,8.037,8.037,3.653H1725.8l11.69-2.192Z" transform="translate(2022.539 1013.203) rotate(180)" fill="#fff"/>
    <path id="Path_404" data-name="Path 404" d="M1693,64.12a19,19,0,0,0,11.69,17.535,5.78,5.78,0,0,1-.307-1.856,5.845,5.845,0,0,1,5.845-5.845h17.118a4.749,4.749,0,1,0,0-9.5h-9.5a4.749,4.749,0,1,1,0-9.5h21.918a4.757,4.757,0,0,0,.541-9.5h-31.935A19,19,0,0,0,1693,64.12Zm10.594-9.155a4.749,4.749,0,1,1-3.366,1.4,4.749,4.749,0,0,1,3.366-1.4Z" transform="translate(-1485.398 885.276)" fill="none"/>
    <ellipse id="Ellipse_83" data-name="Ellipse 83" cx="4.749" cy="4.749" rx="4.749" ry="4.749" transform="translate(324.502 958.632) rotate(180)" fill="#353c45"/>
    <g transform="matrix(1, 0, 0, 1, 194.95, 921.09)" filter="url(#Path_402)">
      <path id="Path_402-2" data-name="Path 402" d="M1795.7,40.47h-88.96a22.649,22.649,0,0,0,.446,44.692H1795.7a22.342,22.342,0,0,0,22.349-22.35h0A22.342,22.342,0,0,0,1795.7,40.47ZM1739,58h0Zm-.541-4.384h-21.918a4.749,4.749,0,0,0,0,9.5h9.5a4.749,4.749,0,1,1,0,9.5h-17.118a5.845,5.845,0,0,0-5.845,5.845,5.77,5.77,0,0,0,.27,1.848,19,19,0,0,1,3.7-36.2h31.935a4.757,4.757,0,1,1-.541,9.5Z" transform="translate(1827.05 91.16) rotate(180)" fill="#353c45"/>
    </g>
  </g>
</svg>
